<svg width="158" height="168" viewBox="0 0 158 168" fill="none" xmlns="http://www.w3.org/2000/svg">
<path d="M49.7375 14.3683C48.5658 12.2731 47.0093 10.4644 45.1658 9.05584C42.941 7.27049 40.4484 5.92028 37.7991 5.06556L32.5558 3.71973C31.5639 4.97683 31.0453 6.59639 31.1041 8.25306C31.1041 15.3364 33.4225 17.2489 33.4225 17.2489H50.9508C50.6488 16.2413 50.2416 15.2748 49.7375 14.3683Z" fill="#D4B675"/>
<path d="M52.5755 114.833C54.0923 112.901 54.8681 110.407 54.7422 107.868V103.5H113.242C113.036 102.031 112.935 100.547 112.939 99.0613C112.939 77.6224 129.947 47.1168 129.947 22.7738C129.947 3.27098 112.939 0.81543 112.939 0.81543H38.6655C38.6655 0.81543 51.9688 4.30987 55.0455 17.3432C55.4756 19.1551 55.6868 21.0204 55.6738 22.8918C55.7388 47.1404 38.6655 77.646 38.6655 99.0849C38.6383 101.812 38.9964 104.528 39.7272 107.136C40.3112 109.189 41.2447 111.103 42.4788 112.779C43.2539 113.763 44.1595 114.614 45.1655 115.306C46.1033 116.054 47.1985 116.533 48.3505 116.699C49.1387 116.76 49.9292 116.623 50.6615 116.3C51.3938 115.977 52.0485 115.475 52.5755 114.833Z" fill="#D4B675"/>
<path d="M58.7717 107.868C58.8919 111.509 57.7202 115.061 55.5 117.785C53.5955 119.432 51.3731 120.586 49 121.161H124.075C125.323 121.093 126.54 120.707 127.627 120.034C128.714 119.362 129.642 118.422 130.337 117.289C132.105 114.526 133.002 111.211 132.893 107.845H58.7717V107.868Z" fill="#D4B675"/>
<g filter="url(#filter0_d_262_22)">
<path d="M26.7217 151.532C26.7217 152.206 26.6169 152.895 26.4072 153.599C26.1976 154.302 25.8831 154.999 25.4639 155.688C25.0596 156.361 24.5355 157.005 23.8916 157.619C23.2627 158.218 22.514 158.742 21.6455 159.191C20.792 159.641 19.8262 160 18.748 160.27C17.6699 160.539 16.472 160.674 15.1543 160.674C14.6003 160.674 13.9564 160.621 13.2227 160.517C12.4889 160.412 11.7402 160.262 10.9766 160.067C10.2129 159.888 9.46419 159.663 8.73047 159.394C8.01172 159.124 7.3903 158.817 6.86621 158.473C6.79134 158.443 6.73145 158.293 6.68652 158.023C6.6416 157.739 6.61165 157.387 6.59668 156.968C6.58171 156.549 6.57422 156.077 6.57422 155.553C6.57422 155.029 6.59668 154.497 6.6416 153.958C6.68652 153.404 6.74642 152.865 6.82129 152.341C6.89616 151.817 6.986 151.345 7.09082 150.926L8.91016 151.038C9.25456 151.922 9.66634 152.745 10.1455 153.509C10.6396 154.272 11.1862 154.939 11.7852 155.508C12.3991 156.062 13.0579 156.504 13.7617 156.833C14.4655 157.147 15.1992 157.305 15.9629 157.305C16.6367 157.305 17.2731 157.222 17.8721 157.058C18.486 156.893 19.0251 156.646 19.4893 156.316C19.9535 155.972 20.3203 155.545 20.5898 155.036C20.8594 154.512 20.9941 153.891 20.9941 153.172C20.9941 152.258 20.792 151.472 20.3877 150.813C19.9834 150.14 19.4443 149.548 18.7705 149.039C18.1117 148.515 17.3555 148.043 16.502 147.624C15.6484 147.205 14.7725 146.785 13.874 146.366C12.9906 145.947 12.1221 145.505 11.2686 145.041C10.415 144.577 9.65137 144.045 8.97754 143.446C8.31868 142.832 7.78711 142.129 7.38281 141.335C6.97852 140.541 6.77637 139.598 6.77637 138.505C6.77637 138.041 6.86621 137.532 7.0459 136.978C7.24056 136.424 7.52507 135.869 7.89941 135.315C8.28874 134.761 8.77539 134.23 9.35938 133.721C9.94336 133.197 10.6322 132.74 11.4258 132.351C12.2194 131.946 13.1253 131.624 14.1436 131.385C15.1618 131.145 16.2923 131.025 17.5352 131.025C18.3887 131.025 19.2197 131.078 20.0283 131.183C20.8369 131.287 21.5856 131.43 22.2744 131.609C22.9782 131.789 23.5921 132.006 24.1162 132.261C24.6553 132.515 25.0596 132.792 25.3291 133.092C25.404 133.152 25.4189 133.301 25.374 133.541C25.3441 133.766 25.2767 134.035 25.1719 134.35C25.0671 134.664 24.9323 135.008 24.7676 135.383C24.6178 135.742 24.4531 136.094 24.2734 136.438C24.1087 136.768 23.944 137.067 23.7793 137.337C23.6146 137.591 23.4723 137.771 23.3525 137.876L21.6455 137.741C21.346 136.978 20.9867 136.341 20.5674 135.832C20.1481 135.308 19.6989 134.889 19.2197 134.574C18.7555 134.26 18.2764 134.043 17.7822 133.923C17.3031 133.788 16.8538 133.721 16.4346 133.721C15.7158 133.721 15.1019 133.811 14.5928 133.99C14.0837 134.17 13.6644 134.417 13.335 134.731C13.0055 135.031 12.766 135.383 12.6162 135.787C12.4665 136.176 12.3916 136.581 12.3916 137C12.3916 137.704 12.5938 138.333 12.998 138.887C13.4173 139.441 13.9639 139.95 14.6377 140.414C15.3115 140.878 16.0752 141.327 16.9287 141.762L19.5566 143.064C20.4551 143.514 21.3311 144 22.1846 144.524C23.0381 145.049 23.8018 145.647 24.4756 146.321C25.1494 146.98 25.6885 147.736 26.0928 148.59C26.512 149.443 26.7217 150.424 26.7217 151.532ZM52.9785 155.261C51.0618 157.192 49.1602 158.577 47.2734 159.416C45.4017 160.255 43.5824 160.674 41.8154 160.674C40.2581 160.674 38.7458 160.359 37.2783 159.73C35.8258 159.102 34.5306 158.196 33.3926 157.013C32.2695 155.83 31.3636 154.385 30.6748 152.678C30.001 150.956 29.6641 149.009 29.6641 146.838C29.6641 144.442 30.0309 142.271 30.7646 140.324C31.5133 138.378 32.5316 136.715 33.8193 135.338C35.1221 133.945 36.6569 132.875 38.4238 132.126C40.1908 131.377 42.1074 131.01 44.1738 131.025C44.9824 131.025 45.7985 131.085 46.6221 131.205C47.4456 131.325 48.2318 131.49 48.9805 131.699C49.7292 131.894 50.4105 132.126 51.0244 132.396C51.6533 132.665 52.1624 132.957 52.5518 133.271C52.6117 133.316 52.6042 133.466 52.5293 133.721C52.4694 133.975 52.3646 134.29 52.2148 134.664C52.0651 135.023 51.8929 135.42 51.6982 135.854C51.5036 136.274 51.3014 136.678 51.0918 137.067C50.8971 137.457 50.71 137.801 50.5303 138.101C50.3506 138.4 50.2008 138.61 50.0811 138.729L48.3965 138.37C47.6478 136.858 46.7868 135.78 45.8135 135.136C44.8551 134.477 43.8294 134.155 42.7363 134.17C41.9727 134.17 41.194 134.35 40.4004 134.709C39.6068 135.068 38.888 135.697 38.2441 136.596C37.6003 137.494 37.0762 138.707 36.6719 140.234C36.2676 141.747 36.0654 143.671 36.0654 146.007C36.0654 147.894 36.305 149.511 36.7842 150.858C37.2633 152.191 37.8848 153.284 38.6484 154.138C39.4121 154.991 40.2731 155.62 41.2314 156.024C42.1898 156.429 43.1481 156.631 44.1064 156.631C44.5107 156.631 44.9899 156.593 45.5439 156.519C46.098 156.429 46.6969 156.271 47.3408 156.047C47.9997 155.822 48.696 155.515 49.4297 155.126C50.1784 154.722 50.9346 154.205 51.6982 153.576C51.7731 153.636 51.8704 153.748 51.9902 153.913C52.125 154.078 52.2523 154.257 52.3721 154.452C52.5068 154.632 52.6266 154.804 52.7314 154.969C52.8512 155.118 52.9336 155.216 52.9785 155.261ZM55.4492 160V158.136C56.4674 157.926 57.2236 157.701 57.7178 157.462C58.2269 157.207 58.4814 156.975 58.4814 156.766V134.237L55.4492 134.664L55.1348 132.373C56.7669 132.029 58.5788 131.722 60.5703 131.452C62.5618 131.168 64.6657 131.025 66.8818 131.025C69.0081 131.025 70.8125 131.198 72.2949 131.542C73.7773 131.886 74.9753 132.366 75.8887 132.979C76.8171 133.593 77.4834 134.32 77.8877 135.158C78.307 135.982 78.5166 136.873 78.5166 137.831C78.5166 138.849 78.3594 139.793 78.0449 140.661C77.7454 141.515 77.3187 142.293 76.7646 142.997C76.2256 143.686 75.5667 144.3 74.7881 144.839C74.0244 145.363 73.1784 145.79 72.25 146.119L79.4375 155.53C79.6771 155.845 79.8942 156.099 80.0889 156.294C80.2985 156.489 80.5231 156.638 80.7627 156.743C81.0173 156.833 81.3092 156.885 81.6387 156.9C81.9831 156.915 82.4098 156.9 82.9189 156.855L83.2783 158.72C82.7842 158.884 82.2002 159.064 81.5264 159.259C80.8675 159.438 80.2087 159.611 79.5498 159.775C78.9059 159.925 78.2995 160.052 77.7305 160.157C77.1615 160.262 76.7347 160.314 76.4502 160.314C76.016 160.314 75.5892 160.195 75.1699 159.955C74.7656 159.715 74.4587 159.424 74.249 159.079L67.915 146.95C67.7952 146.965 67.668 146.973 67.5332 146.973H67.1514C66.762 146.973 66.3727 146.958 65.9834 146.928C65.5941 146.883 65.1898 146.815 64.7705 146.726V156.766C64.7705 156.945 65.0026 157.17 65.4668 157.439C65.931 157.694 66.7096 157.926 67.8027 158.136V160H55.4492ZM65.8262 133.586C65.6615 133.586 65.4893 133.593 65.3096 133.608C65.1449 133.608 64.9652 133.608 64.7705 133.608V144.03C65.1748 144.105 65.5267 144.15 65.8262 144.165C66.1257 144.18 66.4401 144.188 66.7695 144.188C67.7279 144.188 68.5439 144.06 69.2178 143.806C69.8916 143.536 70.4382 143.162 70.8574 142.683C71.2917 142.188 71.6061 141.597 71.8008 140.908C72.0104 140.204 72.1152 139.411 72.1152 138.527C72.1152 137.883 72.0254 137.262 71.8457 136.663C71.681 136.064 71.359 135.54 70.8799 135.091C70.4157 134.627 69.7718 134.26 68.9482 133.99C68.1396 133.721 67.099 133.586 65.8262 133.586ZM84.4238 160V158.136C85.4421 157.926 86.1982 157.701 86.6924 157.462C87.2015 157.207 87.4561 156.975 87.4561 156.766V134.956C87.4561 134.776 87.2165 134.552 86.7373 134.282C86.2731 134.013 85.502 133.773 84.4238 133.563V131.699H96.7773V133.563C95.7591 133.773 94.9954 134.005 94.4863 134.26C93.9922 134.514 93.7451 134.746 93.7451 134.956V156.766C93.7451 156.945 93.9772 157.17 94.4414 157.439C94.9206 157.694 95.6992 157.926 96.7773 158.136V160H84.4238ZM109.423 133.586C109.318 133.586 109.213 133.593 109.108 133.608C109.019 133.608 108.914 133.608 108.794 133.608V143.267H109.108C110.531 143.267 111.684 143.124 112.567 142.84C113.451 142.555 114.132 142.181 114.611 141.717C115.105 141.238 115.435 140.691 115.6 140.077C115.779 139.463 115.869 138.834 115.869 138.19C115.869 137.442 115.764 136.783 115.555 136.214C115.345 135.645 114.986 135.166 114.477 134.776C113.982 134.387 113.324 134.095 112.5 133.9C111.676 133.691 110.651 133.586 109.423 133.586ZM111.602 145.737C110.928 145.737 110.381 145.767 109.962 145.827C109.558 145.887 109.168 145.954 108.794 146.029V156.99C108.794 157.08 108.816 157.177 108.861 157.282C109.281 157.462 109.715 157.589 110.164 157.664C110.613 157.724 111.145 157.754 111.759 157.754C113.915 157.754 115.517 157.275 116.565 156.316C117.629 155.343 118.16 154.01 118.16 152.318C118.16 151.495 118.063 150.694 117.868 149.915C117.674 149.121 117.329 148.418 116.835 147.804C116.341 147.175 115.667 146.673 114.813 146.299C113.975 145.924 112.904 145.737 111.602 145.737ZM124.764 152.004C124.764 153.277 124.494 154.43 123.955 155.463C123.416 156.481 122.63 157.35 121.597 158.068C120.563 158.787 119.298 159.341 117.801 159.73C116.303 160.12 114.604 160.314 112.702 160.314C112.373 160.314 111.953 160.307 111.444 160.292C110.95 160.292 110.404 160.285 109.805 160.27C109.221 160.255 108.599 160.24 107.94 160.225C107.297 160.21 106.66 160.187 106.031 160.157C104.549 160.112 102.984 160.06 101.337 160H99.4727V158.136C100.491 157.926 101.247 157.701 101.741 157.462C102.25 157.207 102.505 156.975 102.505 156.766V134.035C101.921 134.095 101.367 134.162 100.843 134.237C100.334 134.297 99.877 134.365 99.4727 134.439L99.1582 132.373C99.847 132.208 100.671 132.051 101.629 131.901C102.602 131.737 103.62 131.594 104.684 131.475C105.747 131.34 106.817 131.235 107.896 131.16C108.974 131.07 109.977 131.025 110.905 131.025C112.687 131.025 114.282 131.168 115.689 131.452C117.097 131.722 118.287 132.118 119.261 132.643C120.234 133.167 120.975 133.803 121.484 134.552C122.008 135.3 122.271 136.146 122.271 137.09C122.271 138.707 121.821 140.092 120.923 141.245C120.039 142.398 118.692 143.237 116.88 143.761C118.063 143.94 119.133 144.277 120.092 144.771C121.065 145.266 121.896 145.88 122.585 146.613C123.274 147.332 123.805 148.156 124.18 149.084C124.569 149.997 124.764 150.971 124.764 152.004ZM150.684 152.723C150.624 153.367 150.556 154.07 150.481 154.834C150.407 155.583 150.324 156.309 150.234 157.013C150.145 157.701 150.055 158.315 149.965 158.854C149.89 159.394 149.823 159.775 149.763 160H127.908V158.136C128.926 157.926 129.683 157.701 130.177 157.462C130.686 157.207 130.94 156.975 130.94 156.766V134.956C130.94 134.776 130.701 134.552 130.222 134.282C129.757 134.013 128.986 133.773 127.908 133.563V131.699H148.258L149.224 132.485C149.194 132.875 149.149 133.384 149.089 134.013C149.029 134.642 148.954 135.285 148.864 135.944C148.774 136.603 148.677 137.225 148.572 137.809C148.482 138.393 148.393 138.827 148.303 139.111H146.394C146.319 137.719 146.132 136.626 145.832 135.832C145.533 135.023 145.106 134.619 144.552 134.619H137.229V143.491H146.102L146.91 144.345C146.79 144.554 146.641 144.801 146.461 145.086C146.296 145.37 146.117 145.662 145.922 145.962C145.742 146.246 145.555 146.508 145.36 146.748C145.181 146.988 145.008 147.167 144.844 147.287C144.619 147.062 144.372 146.875 144.103 146.726C143.848 146.576 143.549 146.449 143.204 146.344C142.875 146.239 142.478 146.164 142.014 146.119C141.564 146.074 141.025 146.052 140.396 146.052H137.229V155.643C137.229 155.867 137.282 156.069 137.387 156.249C137.492 156.414 137.709 156.563 138.038 156.698C138.368 156.818 138.832 156.915 139.431 156.99C140.03 157.05 140.823 157.08 141.812 157.08H143.811C144.499 157.08 145.083 156.99 145.562 156.811C146.057 156.616 146.491 156.316 146.865 155.912C147.24 155.508 147.576 154.991 147.876 154.362C148.19 153.733 148.505 152.977 148.819 152.094L150.684 152.723Z" fill="#D4B675"/>
</g>
<defs>
<filter id="filter0_d_262_22" x="0.174219" y="124.603" width="156.909" height="42.4709" filterUnits="userSpaceOnUse" color-interpolation-filters="sRGB">
<feFlood flood-opacity="0" result="BackgroundImageFix"/>
<feColorMatrix in="SourceAlpha" type="matrix" values="0 0 0 0 0 0 0 0 0 0 0 0 0 0 0 0 0 0 127 0" result="hardAlpha"/>
<feOffset/>
<feGaussianBlur stdDeviation="3.2"/>
<feComposite in2="hardAlpha" operator="out"/>
<feColorMatrix type="matrix" values="0 0 0 0 0 0 0 0 0 0 0 0 0 0 0 0 0 0 0.25 0"/>
<feBlend mode="normal" in2="BackgroundImageFix" result="effect1_dropShadow_262_22"/>
<feBlend mode="normal" in="SourceGraphic" in2="effect1_dropShadow_262_22" result="shape"/>
</filter>
</defs>
</svg>
